<?xml version="1.0" standalone="no"?><!DOCTYPE svg PUBLIC "-//W3C//DTD SVG 1.1//EN" "http://www.w3.org/Graphics/SVG/1.1/DTD/svg11.dtd"><svg t="1638631570905" class="icon" viewBox="0 0 1024 1024" version="1.1" xmlns="http://www.w3.org/2000/svg" p-id="2304" xmlns:xlink="http://www.w3.org/1999/xlink" width="200" height="200"><defs><style type="text/css"></style></defs><path d="M1019.714 883.738C974.853 765.603 899.021 737.96 837.871 727.024c-50.958-9.121-114.55-28.108-137.005-40.487-0.744-10.215-1.07-31.063 0.908-64.942 1.303-1.443 2.49-2.606 3.792-4.119l-0.674-0.605c30.11-40.394 44.536-78.345 51.027-103.987 19.5-13.728 39.952-40.51 51.959-92.213 6.957-29.946 12.146-67.874-9.354-94.982-0.489-0.675-1-1.303-1.536-1.908C816.255 133.794 694.491 37.904 623.08 12.891l-1.047-0.442-1.024-0.14C594.087 4.142 568.143 0 543.943 0c-5.7 0-10.959 0.256-16.148 0.652C522.513 0.326 517.185 0 511.717 0c-24.176 0-50.074 4.095-77.066 12.193l-0.954 0.325-1.023 0.35c-71.528 24.92-193.315 120.903-173.979 310.89-0.558 0.605-1.117 1.233-1.512 1.908-21.594 27.108-16.312 65.035-9.354 94.982 12.053 51.702 32.413 78.578 51.958 92.213 6.422 25.456 20.756 62.941 50.376 103.033 0 0 0.326 0.442 0.326 0.488 1.676 2.258 2.955 4.491 4.677 6.772 1.955 32.552 1.582 52.796 0.675 63.5-22.594 12.285-85.93 31.319-136.889 40.417C157.85 737.96 81.947 765.65 37.18 883.714c-7.609 20.08-4.84 41.93 7.446 59.754C90.487 1010.038 333.038 1024 528.33 1024c195.293 0 437.89-13.961 483.939-80.672 12.285-17.73 14.984-39.58 7.445-59.59zM341.717 477.679c-6.027 0-31.413-3.979-46.281-68.177-11.611-49.864 0.512-57.892 9.47-57.892 4.095 0 7.516 1.676 7.516 1.676C268.165 121.973 448.636 59.032 448.636 59.032c24.874-7.446 45.722-10.122 62.941-10.122 5.77 0 11.122 0.256 16.055 0.838 5.026-0.582 10.378-0.838 16.125-0.838 17.242 0 38.114 2.653 62.942 10.122 0 0 180.517 62.918 136.213 294.254 0 0 3.42-1.676 7.632-1.676 8.959 0 21.082 7.888 9.424 57.846-14.868 64.174-40.3 68.107-46.258 68.107-0.814 0-1.28-0.07-1.28-0.07s-3.187 60.149-58.566 125.068c0 0.489-0.093 1.117-0.093 1.606-43.07 43.93-87.094 65.175-131.188 63.5-54.82-2.281-98.193-39.674-119.693-62.36 0-0.35-0.093-0.815-0.093-1.164-56.496-65.43-59.824-126.604-59.824-126.604s-0.418 0.14-1.256 0.14zM528.33 975.043c-232.15 0-464.276-24.688-445.522-74.087 37.393-98.658 96.983-117.343 144.614-125.836 47.584-8.563 163.252-37.416 173.467-64.686 3.094-8.214 4.258-23.455 4.42-40.557 29.11 21.826 68.108 42.465 114.97 44.582 2.606 0.14 5.213 0.256 7.702 0.256 42.326 0 83.604-15.776 123.347-46.025 0.186 17.638 1.372 33.367 4.514 41.814 10.145 27.2 125.79 56.146 173.443 64.686s107.198 27.224 144.614 125.86c18.661 49.328-213.442 73.993-445.569 73.993z m0 0" fill="" p-id="2305"></path></svg>